<svg width="1033" height="617" viewBox="0 0 1033 617" fill="none" xmlns="http://www.w3.org/2000/svg">
<path d="M114.201 479.504C107.521 471.435 100.351 463.991 92.701 457.168C85.043 450.352 77.879 443.534 71.199 436.711C64.519 429.895 58.949 422.66 54.5 415.002C50.045 407.35 47.82 398.511 47.82 388.491C47.82 377.917 49.836 370.473 53.873 366.155C57.906 361.842 63.541 359.683 70.783 359.683C78.017 359.683 83.652 361.842 87.691 366.155C91.722 370.473 93.744 377.917 93.744 388.491V402.685H137.164V391.413C137.164 367.76 131.527 349.599 120.256 336.931C108.983 324.269 92.074 317.935 69.529 317.935C46.984 317.935 30.076 324.283 18.804 336.963C7.53302 349.645 1.89603 367.838 1.89603 391.53C1.89603 405.477 4.12102 417.604 8.57602 427.918C13.025 438.231 18.596 447.429 25.275 455.512C31.955 463.6 39.119 471.056 46.777 477.886C54.427 484.716 61.597 491.546 68.277 498.376C74.957 505.206 80.521 512.453 84.976 520.118C89.425 527.789 91.656 536.641 91.656 546.674C91.656 557.269 89.498 564.659 85.185 568.841C80.867 573.022 75.093 575.11 67.859 575.11C60.619 575.11 54.845 573.009 50.533 568.796C46.215 564.588 44.062 557.151 44.062 546.492V523.342H0.644043V543.381C0.644043 567.041 6.41502 585.202 17.968 597.863C29.515 610.532 46.568 616.859 69.113 616.859C91.656 616.859 108.703 610.532 120.256 597.863C131.801 585.202 137.58 567.041 137.58 543.381C137.58 529.467 135.35 517.36 130.9 507.06C126.445 496.765 120.881 487.58 114.201 479.504Z" fill="black"/>
<path d="M1032.26 331.497L884.104 331.504L863.2 353.401L863.241 72.9871L754.833 373.267V232.087L671.327 321.246L145.932 321.273V363.022H193.944V613.517H239.868V362.998H338.764L326.998 436.626L361.021 437.167L378.906 378.815L396.656 437.166L431.201 436.62L419.437 362.998H476.164V613.519H522.088V494.533H537.953C548.527 494.533 556.18 497.319 560.916 502.883C565.645 508.454 568.012 518.057 568.012 531.691V577.615C568.012 583.46 568.078 588.333 568.221 592.227C568.358 596.127 568.639 599.325 569.057 601.83C569.475 604.335 569.957 606.422 570.518 608.092C571.073 609.762 571.627 611.575 572.188 613.52H618.948C616.716 607.956 615.327 602.457 614.772 597.029C614.211 591.602 613.938 585.274 613.938 578.034V532.944C613.938 517.64 611.778 504.627 607.465 493.909C603.147 483.198 595.151 475.474 583.459 470.738C603.5 461.279 613.52 441.514 613.52 411.455V388.493C613.52 379.118 612.579 370.401 610.725 363H689.163L713.028 337.432L713.059 613.931L821.477 313.598V460.735L902.022 372.968L1032.3 372.958L1032.26 331.497ZM567.596 421.891C567.596 433.58 565.155 441.657 560.289 446.105C555.416 450.561 548.664 452.785 540.041 452.785H522.088V362.999H548.83C554.568 363.764 558.963 366.351 561.959 370.122C565.717 374.858 567.596 382.51 567.596 393.084V421.891Z" fill="black"/>
<path d="M407.707 471.544L427.426 528.412L378.906 491.99L330.338 528.421L350.092 471.553L324.355 453.168L298.734 613.519H340.9L348.832 560.497H405.193L413.127 613.519H459.469L433.811 452.952L407.707 471.544Z" fill="black"/>
<path d="M451.598 105.084C456.952 103.828 462 100.98 466.735 96.529C472.237 91.517 474.403 86.515 473.237 81.522C471.612 74.584 467.632 71.858 461.301 73.339C455.946 74.594 451.02 77.677 446.518 82.581C441.493 87.995 439.569 93.2 440.735 98.187C442.135 104.153 445.754 106.453 451.598 105.084Z" fill="#EA1C6B"/>
<path d="M772.016 84.147C769.93 75.262 764.764 71.784 756.512 73.716C751.049 74.997 745.424 79.143 739.639 86.144C735.159 83.603 731.381 82.686 728.309 83.405C726.239 83.891 721.532 89.287 714.188 99.59L675.249 150.426C658.489 171.525 646.13 185.636 638.167 192.756C633.614 196.897 627.784 200.504 620.669 203.578C620.064 203.859 619.564 204.186 619.153 204.557C618.251 204.572 617.208 204.698 615.989 204.964C611.833 205.877 609.403 204.809 608.688 201.772C607.18 195.33 615.354 172.392 633.211 132.952L662.01 72.552L689.551 65.136C702.864 61.12 709.235 57.895 708.664 55.458C708.152 53.267 705.092 52.827 699.496 54.138C691.098 56.107 680.607 59.017 668.021 62.86C683.673 29.918 690.921 10.95 689.748 5.956C688.664 1.333 686.297 -0.551988 682.644 0.303012C679.724 0.988012 673.203 11.247 663.081 31.081L644.288 68.421C637.667 70.872 626.013 74.564 609.321 79.501C594.333 84.04 582.796 87.964 574.712 91.268C568.946 93.518 566.251 95.437 566.622 97.018C567.075 98.964 569.13 99.51 572.78 98.655L637.915 80.7C629.581 98.295 621.628 112.589 614.061 123.593C609.846 129.71 599.227 143.29 582.196 164.328C559.227 192.911 544.167 210.287 537.008 216.45C529.404 221.821 523.633 225.414 519.694 227.233C519.018 227.587 518.477 227.99 518.044 228.426C516.747 228.454 515.142 228.687 513.206 229.14C519.968 217.433 527.106 200.504 534.634 178.361C543.273 152.756 546.554 135.514 544.478 126.644C543.824 123.849 541.841 121.559 538.535 119.769C535.23 117.982 532.172 117.415 529.371 118.07C528.519 118.267 514.414 136.443 487.055 172.587C458.242 210.741 440.01 233.214 432.354 240.008C423.866 245.969 417.497 250.026 413.247 252.173C412.886 252.362 412.573 252.569 412.282 252.785C405.186 254.429 401.259 253.62 400.495 250.352C399.554 246.346 406.257 230.84 420.606 203.833C434.952 176.829 441.53 160.771 440.335 155.669C439.226 150.934 436.599 149.05 432.46 150.017C428.321 150.986 425.132 152.181 422.897 153.603L377.999 213.527C357.067 239.833 343.157 256.1 336.269 262.322C330.767 267.332 324.349 271.464 317.021 274.715C316.443 274.982 315.955 275.286 315.554 275.627C309.177 277.031 305.591 276.08 304.814 272.759C303.96 269.106 311.529 254.43 327.531 228.722C343.529 203.017 350.66 186.451 348.922 179.026C347.297 172.088 343.195 169.389 336.625 170.927C321.771 174.407 296.906 200.907 262.021 250.423L340.166 98.061C357.873 63.479 366.283 44.304 365.404 40.53C364.119 35.051 361.287 32.825 356.904 33.854C353.859 34.567 340.769 57.344 317.631 102.184C312.373 112.372 306.176 124.6 299.641 137.603C279.832 157.961 248.534 195.707 230.879 213.368C205.149 239.106 185.395 259.009 164.848 274.763C144.293 290.514 132.582 298.579 121.6 304.699C110.616 310.823 75.969 330.222 59.903 333.986C37.747 339.174 24.491 332.458 20.128 313.832C14.708 290.708 22.732 258.204 44.198 216.317C68.87 176.897 97.255 140.297 129.356 106.518C162.368 71.756 189.977 51.769 212.186 46.567C222.51 44.149 228.764 47.601 230.95 56.927C231.667 59.995 231.743 63.338 231.184 66.964C215.981 77.718 199.299 96.137 181.141 122.217C160.903 151.486 152.422 173.118 155.702 187.115C157.868 196.367 163.821 199.853 173.561 197.572C189.995 193.72 206.604 175.28 223.393 142.243C238.928 111.553 246.604 86.489 246.416 67.047C254.191 62.408 257.826 59.024 257.33 56.894C256.801 54.643 255.441 53.769 253.25 54.286C251.424 54.713 248.736 56.113 245.182 58.484C239.842 40.088 227.317 33.202 207.598 37.821C186.168 42.839 157.434 60.486 121.381 90.759C89.41 117.642 61.42 150.264 37.408 188.632C7.58801 236.195 -3.559 276.044 3.972 308.183C7.535 323.397 15.982 334.518 29.312 341.538C42.07 348.305 56.505 351.56 71.845 347.969C85.234 344.832 102.439 338.536 116.552 331.365C130.665 324.197 158.351 307.622 194.435 275.715C213.697 258.682 249.042 218.065 276.925 183.139C258.997 219.289 243.736 250.476 243.736 250.476C232.021 275.559 226.49 289.505 227.146 292.303C227.603 294.253 228.923 296.192 231.109 298.115C233.293 300.047 235.3 300.795 237.125 300.368C239.75 297.314 242.971 292.708 246.793 286.547C256.301 271.222 269.254 252.523 285.656 230.445C307.595 200.78 321.916 185.162 328.613 183.593C330.193 183.223 331.092 183.784 331.314 185.269C330.388 188.444 322.339 202.589 307.166 227.717C294.76 248.215 289.76 263.575 292.15 273.802C294.232 282.686 300.572 285.888 311.16 283.408C313.32 282.902 315.047 282.335 316.353 281.709C316.585 281.712 316.832 281.695 317.101 281.631C330.369 278.523 348.912 261.469 372.72 230.463L413.031 178.071C393.496 216.928 384.931 241.474 387.324 251.698C389.379 260.465 395.002 263.768 404.197 261.615C407.572 260.824 410.183 259.99 412.052 259.115C412.419 259.207 412.839 259.204 413.325 259.091C426.471 256.01 443.266 241.097 463.71 214.351C468.616 235.289 478.796 243.945 494.257 240.324C495.228 240.096 496.648 239.573 498.509 238.752C500.37 237.93 501.788 237.403 502.763 237.176C504.115 236.858 506.167 236.637 508.925 236.503C511.679 236.369 513.734 236.148 515.089 235.831C517.064 235.368 518.61 234.81 519.745 234.157C519.755 234.154 519.765 234.155 519.776 234.152C531.95 231.304 547.215 218.354 565.569 195.305L609.651 140.099L600.008 170.48C595.973 185.038 594.766 195.786 596.393 202.722C598.442 211.488 604.885 214.601 615.721 212.062C617.545 211.635 619.016 211.141 620.155 210.584C620.343 210.573 620.538 210.55 620.749 210.499C630.245 208.274 643.044 198.217 659.138 180.317L690.034 142.842C685.514 159.184 684.055 170.759 685.653 177.575C688.702 190.601 696.438 195.659 708.85 192.748C722.12 189.641 736.819 173.999 752.948 145.823C768.766 117.974 775.121 97.418 772.016 84.147ZM203.982 137.931C188.712 167.398 176.826 183.123 168.324 185.119C166.26 185.6 164.912 184.509 164.287 181.836C162.947 176.124 168.945 161.232 182.269 137.153C195.593 113.078 211.345 93.335 229.521 77.922C225.641 92.545 217.129 112.548 203.982 137.931ZM489.41 232.787C485.635 233.671 481.758 231.933 477.783 227.56C474.314 223.718 472.094 219.713 471.115 215.543C470.14 211.377 470.99 208.982 473.668 208.353C476.225 207.753 479.678 210.697 484.018 217.179L492.534 230.511C491.912 231.686 490.869 232.444 489.41 232.787ZM496.502 223.6L486.861 209.573C482.322 203.915 477.716 201.249 473.045 201.564L525.965 133.12C525.076 146.324 521.772 162.091 516.047 180.417C509.883 200.134 503.365 214.525 496.502 223.6ZM714.426 178.725C708.828 180.038 705.344 177.763 703.971 171.904C700.768 158.234 709.037 137.623 728.78 110.072C728.544 113.469 728.759 116.569 729.417 119.371C731.925 130.098 738.585 135.483 749.38 135.524C735.207 162.188 723.557 176.587 714.426 178.725ZM761.451 108.126C758.664 116.518 755.519 123.38 752.017 128.715C743.585 128.883 738.564 125.546 736.962 118.699C735.53 112.589 736.946 105.065 741.21 96.134C745.474 87.204 750.589 82.04 756.552 80.642C760.57 79.701 763.122 81.558 764.21 86.204C765.385 91.215 764.465 98.521 761.451 108.126Z" fill="#EA1C6B"/>
<path d="M378.906 378.815L396.656 437.166L457.322 436.208L407.707 471.544L427.426 528.412L378.906 491.99L330.338 528.421L350.092 471.553L300.613 436.207L361.021 437.167L378.906 378.815Z" fill="#EA1C6B"/>
</svg>
